<svg width="28" height="28" viewBox="0 0 28 28" fill="none" xmlns="http://www.w3.org/2000/svg">
<circle cx="13.9639" cy="14.2092" r="13.3193" fill="#4A0379"/>
<path d="M25.208 14.0324L16.2615 7.76978C16.1289 7.677 15.9468 7.77183 15.9468 7.93363V10.2036C15.9468 10.3141 15.8572 10.4036 15.7468 10.4036H13.2927C13.1822 10.4036 13.0927 10.4932 13.0927 10.6036V16.8633C13.0927 16.9737 13.1822 17.0633 13.2927 17.0633H15.7468C15.8572 17.0633 15.9468 17.1528 15.9468 17.2633V19.5642C15.9468 19.7196 16.1164 19.8156 16.2497 19.7357L25.1962 14.3677C25.3205 14.2932 25.3267 14.1154 25.208 14.0324Z" fill="white"/>
<path d="M10.9764 10.9237C10.9764 10.8132 11.066 10.7237 11.1764 10.7237H12.3947C12.5051 10.7237 12.5947 10.8132 12.5947 10.9237V16.4987C12.5947 16.6092 12.5051 16.6987 12.3947 16.6987H11.1764C11.066 16.6987 10.9764 16.6092 10.9764 16.4987V10.9237Z" fill="white"/>
<path d="M9.23376 11.4216C9.23376 11.3112 9.32331 11.2216 9.43376 11.2216H10.2786C10.389 11.2216 10.4786 11.3112 10.4786 11.4216V16.1253C10.4786 16.2357 10.389 16.3253 10.2786 16.3253H9.43376C9.32331 16.3253 9.23376 16.2357 9.23376 16.1253V11.4216Z" fill="white"/>
<path d="M7.74011 11.9195C7.74011 11.8091 7.82966 11.7195 7.94011 11.7195H8.53595C8.6464 11.7195 8.73595 11.8091 8.73595 11.9195V15.6274C8.73595 15.7378 8.6464 15.8274 8.53595 15.8274H7.94011C7.82966 15.8274 7.74011 15.7378 7.74011 15.6274V11.9195Z" fill="white"/>
<path d="M6.24634 12.1685C6.24634 12.058 6.33588 11.9685 6.44634 11.9685H7.04217C7.15263 11.9685 7.24217 12.058 7.24217 12.1685V15.3784C7.24217 15.4889 7.15263 15.5784 7.04217 15.5784H6.44634C6.33588 15.5784 6.24634 15.4889 6.24634 15.3784V12.1685Z" fill="white"/>
<path d="M5.00146 12.5419C5.00146 12.4315 5.09101 12.3419 5.20146 12.3419H5.54834C5.6588 12.3419 5.74834 12.4315 5.74834 12.5419V15.0049C5.74834 15.1154 5.6588 15.2049 5.54834 15.2049H5.20146C5.09101 15.2049 5.00146 15.1154 5.00146 15.0049V12.5419Z" fill="white"/>
</svg>
